<svg width="20" height="18" viewBox="0 0 20 18" fill="none" xmlns="http://www.w3.org/2000/svg">
<path fill-rule="evenodd" clip-rule="evenodd" d="M3.03475 2.33998C2.95336 2.33384 2.84042 2.3333 2.62862 2.3333H1.25008C0.789844 2.3333 0.416748 1.9602 0.416748 1.49996C0.416748 1.03973 0.789844 0.66663 1.25008 0.66663H2.62862C2.63648 0.66663 2.64433 0.666629 2.65218 0.666628C2.83107 0.666606 3.00818 0.666584 3.15997 0.678021C3.32888 0.690747 3.52512 0.72064 3.72813 0.811197C4.01384 0.938643 4.25791 1.14393 4.43242 1.40357C4.55642 1.58807 4.6195 1.77628 4.66098 1.94051C4.69825 2.0881 4.72858 2.26259 4.75921 2.43884C4.76055 2.44657 4.7619 2.45432 4.76324 2.46206L4.96181 3.60378L15.8068 3.92481C16.2318 3.93737 16.599 3.94823 16.9015 3.98154C17.2212 4.01675 17.5382 4.08296 17.8422 4.24494C18.3029 4.49039 18.6753 4.87391 18.907 5.34169C19.0599 5.6504 19.1167 5.96918 19.1424 6.28978C19.1668 6.59309 19.1668 6.96051 19.1667 7.38568V7.44713C19.1668 7.84669 19.1668 8.19329 19.1444 8.4807C19.1207 8.78549 19.0683 9.08824 18.9287 9.38488C18.7161 9.83638 18.3734 10.214 17.9444 10.469C17.6626 10.6365 17.3663 10.7178 17.0652 10.7708C16.7813 10.8208 16.4363 10.8541 16.0387 10.8926L7.92707 11.6776C7.51942 11.7171 7.1662 11.7513 6.87151 11.7564C6.55929 11.7619 6.24625 11.7377 5.93199 11.6222C5.46067 11.4491 5.05242 11.138 4.76038 10.7296C4.56566 10.4573 4.45918 10.1619 4.3816 9.8594C4.30838 9.57391 4.24759 9.2243 4.17743 8.8208L3.12122 2.74763C3.08493 2.53895 3.06504 2.42778 3.04506 2.34864C3.04435 2.34583 3.04366 2.34316 3.043 2.34063C3.04039 2.34041 3.03764 2.34019 3.03475 2.33998ZM5.25329 5.27981L5.8142 8.50504C5.89112 8.94733 5.94112 9.23132 5.99601 9.44533C6.04836 9.64944 6.08977 9.72334 6.11616 9.76024C6.2135 9.89639 6.34959 10.0001 6.50669 10.0578C6.54927 10.0734 6.63151 10.0937 6.8422 10.09C7.0631 10.0861 7.35017 10.059 7.79701 10.0157L15.8481 9.23658C16.2843 9.19437 16.5641 9.16671 16.7764 9.12935C16.9786 9.09375 17.0541 9.05931 17.0926 9.03642C17.2356 8.95141 17.3499 8.82555 17.4207 8.67505C17.4398 8.63451 17.4668 8.55605 17.4828 8.35131C17.4995 8.13637 17.5001 7.85528 17.5001 7.41705C17.5001 6.95163 17.4995 6.65174 17.4811 6.42314C17.4635 6.20439 17.4338 6.12238 17.4135 6.08147C17.3363 5.92554 17.2121 5.7977 17.0586 5.71589C17.0183 5.69442 16.9372 5.66222 16.7191 5.63819C16.4911 5.61309 16.1913 5.60359 15.7261 5.58982L5.25329 5.27981Z" fill="black"/>
<path fill-rule="evenodd" clip-rule="evenodd" d="M7.50008 14.4166C7.03984 14.4166 6.66675 14.7897 6.66675 15.25C6.66675 15.7102 7.03984 16.0833 7.50008 16.0833C7.96032 16.0833 8.33341 15.7102 8.33341 15.25C8.33341 14.7897 7.96032 14.4166 7.50008 14.4166ZM5.00008 15.25C5.00008 13.8692 6.11937 12.75 7.50008 12.75C8.88079 12.75 10.0001 13.8692 10.0001 15.25C10.0001 16.6307 8.88079 17.75 7.50008 17.75C6.11937 17.75 5.00008 16.6307 5.00008 15.25Z" fill="black"/>
<path fill-rule="evenodd" clip-rule="evenodd" d="M15.4167 14.4166C14.9565 14.4166 14.5834 14.7897 14.5834 15.25C14.5834 15.7102 14.9565 16.0833 15.4167 16.0833C15.877 16.0833 16.2501 15.7102 16.2501 15.25C16.2501 14.7897 15.877 14.4166 15.4167 14.4166ZM12.9167 15.25C12.9167 13.8692 14.036 12.75 15.4167 12.75C16.7975 12.75 17.9167 13.8692 17.9167 15.25C17.9167 16.6307 16.7975 17.75 15.4167 17.75C14.036 17.75 12.9167 16.6307 12.9167 15.25Z" fill="black"/>
</svg>
