<svg width="16" height="14" viewBox="0 0 16 14" fill="none" xmlns="http://www.w3.org/2000/svg">
<path fill-rule="evenodd" clip-rule="evenodd" d="M14.3837 6.04484C14.2887 6.70266 14.0637 7.32788 13.7302 7.90282C13.7552 8.04517 13.768 8.18905 13.768 8.33356C13.768 8.83544 13.6226 9.31576 13.3532 9.75217C13.2188 9.96999 13.1842 10.2252 13.1708 10.3939C13.1556 10.5871 13.1607 10.7986 13.1745 11.0018C13.19 11.2297 13.218 11.469 13.2501 11.6947C12.9899 11.6188 12.7079 11.5426 12.4387 11.4819C12.2148 11.4314 11.9858 11.3883 11.7783 11.3669C11.5973 11.3482 11.3357 11.3337 11.1018 11.4094C10.5904 11.5747 10.0277 11.6669 9.43467 11.6669C8.7294 11.6669 8.08166 11.5417 7.5139 11.3242C7.37734 11.3304 7.23978 11.3336 7.10132 11.3336C6.29824 11.3336 5.52532 11.2279 4.80216 11.0328C5.85347 12.2487 7.58659 13.0002 9.43467 13.0002C10.1566 13.0002 10.8496 12.8894 11.4881 12.6857C11.4892 12.6857 11.4913 12.6857 11.4943 12.6856C11.5107 12.6853 11.5562 12.6844 11.6413 12.6932C11.775 12.707 11.9469 12.7378 12.1453 12.7826C12.5402 12.8716 12.984 13.0031 13.3298 13.1129C14.0633 13.3457 14.7739 12.7057 14.6428 11.9614C14.5864 11.6411 14.5278 11.2501 14.5048 10.9114C14.4932 10.7411 14.492 10.6014 14.5 10.4988C14.5034 10.4563 14.5077 10.4296 14.5104 10.4155C14.8855 9.79413 15.1013 9.08671 15.1013 8.33356C15.1013 7.48452 14.8376 6.70922 14.3837 6.04484Z" fill="#787A80"/>
<path fill-rule="evenodd" clip-rule="evenodd" d="M3.4994 2.79869C2.60076 3.48589 2.10137 4.38798 2.10137 5.33325C2.10137 5.80461 2.22408 6.25858 2.4543 6.68074C2.54198 6.84153 2.56685 7.00739 2.57575 7.11967C2.58545 7.2421 2.58061 7.36793 2.56997 7.4856C2.54865 7.72118 2.4978 7.9881 2.43681 8.25101C2.36546 8.55854 2.27404 8.88651 2.18127 9.19445C2.53343 9.06645 2.91834 8.93528 3.28324 8.82882C3.57816 8.74279 3.87598 8.66813 4.14105 8.62621C4.36939 8.59011 4.70074 8.55462 4.98601 8.65332C5.62623 8.87482 6.34242 8.99992 7.10137 8.99992C8.53282 8.99992 9.80409 8.55547 10.7033 7.86781C11.602 7.18062 12.1014 6.27853 12.1014 5.33325C12.1014 4.38798 11.602 3.48589 10.7033 2.79869C9.80409 2.11103 8.53282 1.66659 7.10137 1.66659C5.66993 1.66659 4.39865 2.11103 3.4994 2.79869ZM2.68947 1.73955C3.84114 0.858857 5.40321 0.333252 7.10137 0.333252C8.79954 0.333252 10.3616 0.858857 11.5133 1.73955C12.6656 2.62072 13.4347 3.88529 13.4347 5.33325C13.4347 6.78121 12.6656 8.04579 11.5133 8.92695C10.3616 9.80765 8.79954 10.3333 7.10137 10.3333C6.206 10.3333 5.35075 10.1873 4.57422 9.92168C4.57344 9.92386 4.51046 9.9177 4.34929 9.94319C4.16352 9.97256 3.9264 10.0301 3.65667 10.1088C3.11969 10.2655 2.51666 10.4871 2.05733 10.6658C1.26158 10.9755 0.450943 10.2113 0.71905 9.39721C0.86115 8.96574 1.02874 8.42048 1.13797 7.94968C1.19299 7.71251 1.2287 7.51311 1.24206 7.36544C1.2467 7.31419 1.24789 7.27682 1.24763 7.25156C0.940772 6.66519 0.76804 6.01675 0.76804 5.33325C0.76804 3.88529 1.53718 2.62072 2.68947 1.73955Z" fill="#787A80"/>
</svg>
