<svg width="49" height="48" viewBox="0 0 49 48" fill="none" xmlns="http://www.w3.org/2000/svg">
<g clip-path="url(#clip0_240_1231)">
<path d="M44.5596 24.9351L42.9431 18.4692C43.5177 17.9196 43.8125 17.1904 43.8125 16.4375C43.8125 14.8866 42.5509 13.625 41 13.625H33.5V10.8125C33.5 9.2616 32.2384 8 30.6875 8H3.3125C1.7616 8 0.5 9.2616 0.5 10.8125V35.1875C0.5 36.7384 1.7616 38 3.3125 38H6.6875C6.6875 41.1018 9.21069 43.625 12.3125 43.625C15.4143 43.625 17.9375 41.1018 17.9375 38H35.375C35.375 41.1018 37.8982 43.625 41 43.625C44.1018 43.625 46.625 41.1018 46.625 38C46.625 37.9465 46.6224 37.8934 46.621 37.84C47.7141 37.4543 48.5 36.411 48.5 35.1875V29.5625C48.5 27.2319 46.7905 25.2939 44.5596 24.9351ZM41.2054 19.25L42.6117 24.875H34.8257L36.9753 22.7253C37.3416 22.3591 37.3416 21.7659 36.9753 21.3997C36.6091 21.0334 36.0159 21.0334 35.6497 21.3997L33.5 23.549V19.25H41.2054ZM41.9375 16.4375C41.9375 16.955 41.5175 17.375 41 17.375H33.5V15.5H41C41.5171 15.5 41.9375 15.9204 41.9375 16.4375ZM12.3125 41.75C10.2449 41.75 8.5625 40.0676 8.5625 38C8.5625 35.9042 10.2753 34.25 12.3125 34.25C14.3545 34.25 16.0625 35.9086 16.0625 38C16.0625 40.0676 14.3801 41.75 12.3125 41.75ZM17.6156 36.125C16.8326 33.9127 14.7134 32.375 12.3125 32.375C9.91052 32.375 7.79053 33.9138 7.00903 36.125H3.3125C2.79541 36.125 2.375 35.7046 2.375 35.1875V10.8125C2.375 10.2954 2.79541 9.875 3.3125 9.875H30.6875C31.2046 9.875 31.625 10.2954 31.625 10.8125V36.125H17.6156ZM41 41.75C38.9324 41.75 37.25 40.0676 37.25 38C37.25 35.9042 38.9628 34.25 41 34.25C43.042 34.25 44.75 35.9086 44.75 38C44.75 40.0676 43.0676 41.75 41 41.75ZM46.2365 35.9459C45.4048 33.83 43.3357 32.375 41 32.375C38.598 32.375 36.478 33.9138 35.6965 36.125H33.5V26.75H43.8125C45.0345 26.75 46.0768 27.5337 46.4639 28.625H43.8125C43.2947 28.625 42.875 29.0447 42.875 29.5625C42.875 30.0803 43.2947 30.5 43.8125 30.5H46.625V35.1875C46.625 35.4991 46.4712 35.7753 46.2365 35.9459Z" fill="#CBAC86"/>
<path d="M16.9375 13C12.2852 13 8.5 16.7852 8.5 21.4375C8.5 26.0898 12.2852 29.875 16.9375 29.875C21.5898 29.875 25.375 26.0898 25.375 21.4375C25.375 16.7852 21.5898 13 16.9375 13ZM16.9375 28C13.319 28 10.375 25.056 10.375 21.4375C10.375 17.819 13.319 14.875 16.9375 14.875C20.556 14.875 23.5 17.819 23.5 21.4375C23.5 25.056 20.556 28 16.9375 28Z" fill="#CBAC86"/>
<path d="M20.6875 20.5H17.875V17.6875C17.875 17.1697 17.4553 16.75 16.9375 16.75C16.4197 16.75 16 17.1697 16 17.6875V21.4375C16 21.9553 16.4197 22.375 16.9375 22.375H20.6875C21.2053 22.375 21.625 21.9553 21.625 21.4375C21.625 20.9197 21.2053 20.5 20.6875 20.5Z" fill="#CBAC86"/>
</g>
<defs>
<clipPath id="clip0_240_1231">
<rect width="48" height="48" fill="white" transform="translate(0.5)"/>
</clipPath>
</defs>
</svg>
