<svg width="32" height="32" viewBox="0 0 32 32" fill="none" xmlns="http://www.w3.org/2000/svg">
<rect width="32" height="32" rx="4" fill="white" fill-opacity="0.8"/>
<rect opacity="0.12" width="32" height="32" rx="4" fill="white"/>
<path d="M19.7086 8.66956L17.8571 8.6665C15.777 8.6665 14.4328 10.0832 14.4328 12.276V13.9402H12.5712C12.4103 13.9402 12.28 14.0742 12.28 14.2394V16.6507C12.28 16.8159 12.4104 16.9497 12.5712 16.9497H14.4328V23.0341C14.4328 23.1994 14.563 23.3332 14.7239 23.3332H17.1528C17.3136 23.3332 17.4439 23.1992 17.4439 23.0341V16.9497H19.6206C19.7814 16.9497 19.9117 16.8159 19.9117 16.6507L19.9126 14.2394C19.9126 14.1601 19.8818 14.0841 19.8273 14.0279C19.7728 13.9718 19.6985 13.9402 19.6213 13.9402H17.4439V12.5294C17.4439 11.8514 17.6012 11.5071 18.4611 11.5071L19.7083 11.5067C19.8691 11.5067 19.9993 11.3727 19.9993 11.2076V8.96862C19.9993 8.80368 19.8692 8.66986 19.7086 8.66956Z" fill="black"/>
</svg>
