<svg width="49" height="48" viewBox="0 0 49 48" fill="none" xmlns="http://www.w3.org/2000/svg">
<g clip-path="url(#clip0_240_1242)">
<path d="M24.4375 27.375C24.955 27.375 25.375 26.955 25.375 26.4375C25.375 25.92 24.955 25.5 24.4375 25.5C23.92 25.5 23.5 25.92 23.5 26.4375C23.5 26.955 23.92 27.375 24.4375 27.375Z" fill="#CBAC86"/>
<path d="M23.6426 47.8255C23.8056 47.942 23.9964 48.0002 24.1875 48.0002C24.3787 48.0002 24.5695 47.942 24.7325 47.8255C34.2844 41.0026 43.8751 38.0088 43.8751 23.9701V6.58971C43.8751 6.10228 43.5012 5.69615 43.0156 5.6555L40.5788 5.45189C34.9923 4.98643 29.4961 3.15024 24.6845 0.142548C24.3805 -0.047516 23.9945 -0.047516 23.6906 0.142548C18.8786 3.15024 13.3825 4.98643 7.79591 5.45225L5.3595 5.6555C4.87354 5.69615 4.5 6.10228 4.5 6.58971V23.9701C4.5 38.4047 15.4376 41.9647 23.6426 47.8255ZM6.375 7.45213L7.95191 7.32066C13.6432 6.84605 19.2433 5.02232 24.1875 2.03769C29.1314 5.02232 34.7319 6.84605 40.4228 7.32066L42.0001 7.45213V23.9701C42.0001 36.629 33.5651 39.3451 24.1861 45.9154C15.9547 40.2017 6.375 36.9593 6.375 23.9701V7.45213Z" fill="#CBAC86"/>
<path d="M24.0161 41.0109C24.3567 41.2434 24.7856 41.2266 25.1089 40.9863C33.5959 35.1119 38.6251 33.1791 38.6251 23.971V11.6747C38.6251 11.2108 38.2856 10.8163 37.8267 10.7475C33.3399 10.0733 29.0219 8.67694 24.9925 6.59722C24.7024 6.44744 24.3571 6.46648 24.0912 6.61809C20.0731 8.68682 15.7691 10.0762 11.2983 10.7475C10.8395 10.8163 10.5 11.2104 10.5 11.6747V23.971C10.5 33.2659 16.0082 35.547 24.0161 41.0109ZM12.375 12.4742C16.2741 11.8146 20.0446 10.6285 23.6155 8.94207V22.6875C23.6155 23.2053 24.0352 23.625 24.553 23.625C25.0708 23.625 25.4905 23.2053 25.4905 22.6875V8.93328C29.0666 10.6237 32.844 11.8132 36.7501 12.4742V23.971C36.7501 31.5919 33.1802 33.2534 25.4905 38.454V30.1875C25.4905 29.6697 25.0708 29.25 24.553 29.25C24.0352 29.25 23.6155 29.6697 23.6155 30.1875V38.4811C16.4308 33.6984 12.375 31.6545 12.375 23.971V12.4742Z" fill="#CBAC86"/>
</g>
<defs>
<clipPath id="clip0_240_1242">
<rect width="48" height="48" fill="white" transform="translate(0.5)"/>
</clipPath>
</defs>
</svg>
