<svg width="20" height="18" viewBox="0 0 20 18" fill="none" xmlns="http://www.w3.org/2000/svg">
<path fill-rule="evenodd" clip-rule="evenodd" d="M9.89824 15.42C6.06568 13.2372 3.92814 11.0676 2.8945 9.1852C1.83657 7.25854 1.92888 5.63581 2.51592 4.48411C3.72257 2.11683 7.1539 1.35985 9.24454 4.004L9.89819 4.83071L10.5519 4.00404C12.6429 1.35978 16.0744 2.11689 17.281 4.4841C17.8681 5.6358 17.9603 7.25851 16.9023 9.18518C15.8686 11.0676 13.731 13.2372 9.89824 15.42ZM9.89827 2.25226C6.95726 -0.542414 2.6186 0.612621 1.03103 3.72723C0.159745 5.43657 0.147843 7.64584 1.43358 9.98739C2.70792 12.3082 5.24867 14.7578 9.49511 17.1049L9.89822 17.3277L10.3013 17.1049C14.5479 14.7578 17.0888 12.3082 18.3632 9.98741C19.6491 7.64586 19.6372 5.43658 18.7659 3.72723C17.1783 0.612561 12.8395 -0.542371 9.89827 2.25226Z" fill="black"/>
</svg>
