<svg width="32" height="32" viewBox="0 0 32 32" fill="none" xmlns="http://www.w3.org/2000/svg">
<rect width="32" height="32" rx="4" fill="white" fill-opacity="0.8"/>
<rect opacity="0.12" width="32" height="32" rx="4" fill="white"/>
<path d="M22.6535 13.2535C22.6223 12.5451 22.5077 12.058 22.3436 11.636C22.1743 11.188 21.9139 10.7869 21.5726 10.4535C21.2392 10.1149 20.8355 9.85179 20.3927 9.68513C19.9682 9.52101 19.4837 9.40645 18.7752 9.37521C18.0615 9.34133 17.8349 9.3335 16.0246 9.3335C14.2144 9.3335 13.9878 9.34133 13.2767 9.37257C12.5683 9.4038 12.0812 9.51847 11.6593 9.68248C11.2112 9.85179 10.8101 10.1123 10.4767 10.4535C10.1381 10.7869 9.87508 11.1906 9.70832 11.6334C9.54421 12.058 9.42964 12.5424 9.3984 13.2509C9.36452 13.9646 9.35669 14.1912 9.35669 16.0015C9.35669 17.8117 9.36452 18.0383 9.39576 18.7494C9.427 19.4578 9.54166 19.9449 9.70578 20.3669C9.87508 20.8149 10.1381 21.216 10.4767 21.5494C10.8101 21.888 11.2138 22.1511 11.6566 22.3178C12.0812 22.4819 12.5656 22.5965 13.2742 22.6277C13.9852 22.6591 14.2119 22.6668 16.0221 22.6668C17.8324 22.6668 18.0589 22.6591 18.77 22.6277C19.4785 22.5965 19.9655 22.4819 20.3875 22.3178C21.2835 21.9714 21.992 21.2629 22.3384 20.3669C22.5024 19.9424 22.6171 19.4578 22.6483 18.7494C22.6796 18.0383 22.6874 17.8117 22.6874 16.0015C22.6874 14.1912 22.6848 13.9646 22.6535 13.2535ZM21.4528 18.6973C21.4242 19.3485 21.3148 19.7001 21.2236 19.9345C20.9996 20.5154 20.5386 20.9764 19.9577 21.2004C19.7233 21.2916 19.3691 21.401 18.7205 21.4296C18.0172 21.4609 17.8063 21.4686 16.0273 21.4686C14.2483 21.4686 14.0347 21.4609 13.334 21.4296C12.6828 21.401 12.3312 21.2916 12.0968 21.2004C11.8077 21.0936 11.5446 20.9243 11.3311 20.7029C11.1097 20.4867 10.9404 20.2262 10.8335 19.9372C10.7424 19.7027 10.633 19.3485 10.6044 18.6999C10.5731 17.9967 10.5653 17.7857 10.5653 16.0067C10.5653 14.2276 10.5731 14.0141 10.6044 13.3135C10.633 12.6623 10.7424 12.3107 10.8335 12.0762C10.9404 11.7871 11.1097 11.5241 11.3337 11.3104C11.5498 11.089 11.8103 10.9197 12.0994 10.813C12.3338 10.7218 12.6881 10.6124 13.3366 10.5837C14.0399 10.5525 14.2509 10.5447 16.0298 10.5447C17.8115 10.5447 18.0224 10.5525 18.7231 10.5837C19.3743 10.6124 19.7259 10.7218 19.9603 10.813C20.2494 10.9197 20.5125 11.089 20.7261 11.3104C20.9475 11.5266 21.1168 11.7871 21.2236 12.0762C21.3148 12.3107 21.4242 12.6648 21.4528 13.3135C21.4841 14.0167 21.4919 14.2276 21.4919 16.0067C21.4919 17.7857 21.4841 17.994 21.4528 18.6973Z" fill="black"/>
<path d="M16.0246 12.5763C14.1337 12.5763 12.5995 14.1104 12.5995 16.0015C12.5995 17.8925 14.1337 19.4266 16.0246 19.4266C17.9157 19.4266 19.4498 17.8925 19.4498 16.0015C19.4498 14.1104 17.9157 12.5763 16.0246 12.5763ZM16.0246 18.2233C14.7979 18.2233 13.8028 17.2283 13.8028 16.0015C13.8028 14.7746 14.7979 13.7797 16.0246 13.7797C17.2515 13.7797 18.2465 14.7746 18.2465 16.0015C18.2465 17.2283 17.2515 18.2233 16.0246 18.2233Z" fill="black"/>
<path d="M20.385 12.4409C20.385 12.8825 20.0269 13.2405 19.5852 13.2405C19.1437 13.2405 18.7856 12.8825 18.7856 12.4409C18.7856 11.9992 19.1437 11.6413 19.5852 11.6413C20.0269 11.6413 20.385 11.9992 20.385 12.4409Z" fill="black"/>
</svg>
