<svg width="160" height="40" viewBox="0 0 160 40" fill="none" xmlns="http://www.w3.org/2000/svg">
<mask id="mask0_323_1475" style="mask-type:luminance" maskUnits="userSpaceOnUse" x="0" y="0" width="160" height="40">
<path d="M160 0H0V40H160V0Z" fill="white"/>
</mask>
<g mask="url(#mask0_323_1475)">
<path d="M26.56 8.66398V31H22.08V16.472L16.096 31H12.704L6.68801 16.472V31H2.20801V8.66398H7.29601L14.4 25.272L21.504 8.66398H26.56ZM41.3573 31.224C39.2666 31.224 37.3466 30.7333 35.5973 29.752C33.8479 28.7707 32.4613 27.416 31.4373 25.688C30.4133 23.9387 29.9013 21.9653 29.9013 19.768C29.9013 17.592 30.4133 15.64 31.4373 13.912C32.4613 12.1627 33.8479 10.7973 35.5973 9.81598C37.3466 8.83465 39.2666 8.34398 41.3573 8.34398C43.4693 8.34398 45.3893 8.83465 47.1173 9.81598C48.8666 10.7973 50.2426 12.1627 51.2453 13.912C52.2693 15.64 52.7813 17.592 52.7813 19.768C52.7813 21.9653 52.2693 23.9387 51.2453 25.688C50.2426 27.416 48.8666 28.7707 47.1173 29.752C45.3679 30.7333 43.4479 31.224 41.3573 31.224ZM41.3573 27.224C42.7013 27.224 43.8853 26.9253 44.9093 26.328C45.9333 25.7093 46.7333 24.8347 47.3093 23.704C47.8853 22.5733 48.1733 21.2613 48.1733 19.768C48.1733 18.2747 47.8853 16.9733 47.3093 15.864C46.7333 14.7333 45.9333 13.8693 44.9093 13.272C43.8853 12.6747 42.7013 12.376 41.3573 12.376C40.0133 12.376 38.8186 12.6747 37.7733 13.272C36.7493 13.8693 35.9493 14.7333 35.3733 15.864C34.7973 16.9733 34.5093 18.2747 34.5093 19.768C34.5093 21.2613 34.7973 22.5733 35.3733 23.704C35.9493 24.8347 36.7493 25.7093 37.7733 26.328C38.8186 26.9253 40.0133 27.224 41.3573 27.224ZM75.2183 31H70.7383L60.5943 15.672V31H56.1143V8.63198H60.5943L70.7383 23.992V8.63198H75.2183V31ZM84.0615 8.66398V22.488C84.0615 24.0027 84.4562 25.1653 85.2455 25.976C86.0348 26.7653 87.1442 27.16 88.5735 27.16C90.0242 27.16 91.1442 26.7653 91.9335 25.976C92.7228 25.1653 93.1175 24.0027 93.1175 22.488V8.66398H97.6295V22.456C97.6295 24.3547 97.2135 25.9653 96.3815 27.288C95.5708 28.5893 94.4722 29.5707 93.0855 30.232C91.7202 30.8933 90.1948 31.224 88.5095 31.224C86.8455 31.224 85.3308 30.8933 83.9655 30.232C82.6215 29.5707 81.5548 28.5893 80.7655 27.288C79.9762 25.9653 79.5815 24.3547 79.5815 22.456V8.66398H84.0615ZM109.67 31.224C108.113 31.224 106.705 30.9573 105.446 30.424C104.209 29.8907 103.227 29.1227 102.502 28.12C101.777 27.1173 101.403 25.9333 101.382 24.568H106.182C106.246 25.4853 106.566 26.2107 107.142 26.744C107.739 27.2773 108.55 27.544 109.574 27.544C110.619 27.544 111.441 27.2987 112.038 26.808C112.635 26.296 112.934 25.6347 112.934 24.824C112.934 24.1627 112.731 23.6187 112.326 23.192C111.921 22.7653 111.409 22.4347 110.79 22.2C110.193 21.944 109.361 21.6667 108.294 21.368C106.843 20.9413 105.659 20.5253 104.742 20.12C103.846 19.6933 103.067 19.064 102.406 18.232C101.766 17.3787 101.446 16.248 101.446 14.84C101.446 13.5173 101.777 12.3653 102.438 11.384C103.099 10.4027 104.027 9.65598 105.222 9.14398C106.417 8.61065 107.782 8.34398 109.318 8.34398C111.622 8.34398 113.489 8.90931 114.918 10.04C116.369 11.1493 117.169 12.7067 117.318 14.712H112.39C112.347 13.944 112.017 13.3147 111.398 12.824C110.801 12.312 110.001 12.056 108.998 12.056C108.123 12.056 107.419 12.28 106.886 12.728C106.374 13.176 106.118 13.8267 106.118 14.68C106.118 15.2773 106.31 15.7787 106.694 16.184C107.099 16.568 107.59 16.888 108.166 17.144C108.763 17.3787 109.595 17.656 110.662 17.976C112.113 18.4027 113.297 18.8293 114.214 19.256C115.131 19.6827 115.921 20.3227 116.582 21.176C117.243 22.0293 117.574 23.1493 117.574 24.536C117.574 25.7307 117.265 26.84 116.646 27.864C116.027 28.888 115.121 29.7093 113.926 30.328C112.731 30.9253 111.313 31.224 109.67 31.224ZM139.986 8.66398V31H135.506V21.496H125.938V31H121.458V8.66398H125.938V17.848H135.506V8.66398H139.986ZM148.876 12.28V17.88H156.396V21.432H148.876V27.352H157.356V31H144.396V8.63198H157.356V12.28H148.876ZM154.22 4.02398L146.86 7.38398V4.18398L154.22 0.375977V4.02398Z" fill="black"/>
</g>
</svg>
