<svg width="156" height="32" viewBox="0 0 156 32" fill="none" xmlns="http://www.w3.org/2000/svg">
<path d="M24.56 8.66398V31H20.08V16.472L14.096 31H10.704L4.68801 16.472V31H0.208008V8.66398H5.29601L12.4 25.272L19.504 8.66398H24.56ZM39.3573 31.224C37.2666 31.224 35.3466 30.7333 33.5973 29.752C31.8479 28.7707 30.4613 27.416 29.4373 25.688C28.4133 23.9387 27.9013 21.9653 27.9013 19.768C27.9013 17.592 28.4133 15.64 29.4373 13.912C30.4613 12.1627 31.8479 10.7973 33.5973 9.81598C35.3466 8.83465 37.2666 8.34398 39.3573 8.34398C41.4693 8.34398 43.3893 8.83465 45.1173 9.81598C46.8666 10.7973 48.2426 12.1627 49.2453 13.912C50.2693 15.64 50.7813 17.592 50.7813 19.768C50.7813 21.9653 50.2693 23.9387 49.2453 25.688C48.2426 27.416 46.8666 28.7707 45.1173 29.752C43.3679 30.7333 41.4479 31.224 39.3573 31.224ZM39.3573 27.224C40.7013 27.224 41.8853 26.9253 42.9093 26.328C43.9333 25.7093 44.7333 24.8347 45.3093 23.704C45.8853 22.5733 46.1733 21.2613 46.1733 19.768C46.1733 18.2747 45.8853 16.9733 45.3093 15.864C44.7333 14.7333 43.9333 13.8693 42.9093 13.272C41.8853 12.6747 40.7013 12.376 39.3573 12.376C38.0133 12.376 36.8186 12.6747 35.7733 13.272C34.7493 13.8693 33.9493 14.7333 33.3733 15.864C32.7973 16.9733 32.5093 18.2747 32.5093 19.768C32.5093 21.2613 32.7973 22.5733 33.3733 23.704C33.9493 24.8347 34.7493 25.7093 35.7733 26.328C36.8186 26.9253 38.0133 27.224 39.3573 27.224ZM73.2183 31H68.7383L58.5943 15.672V31H54.1143V8.63198H58.5943L68.7383 23.992V8.63198H73.2183V31ZM82.0615 8.66398V22.488C82.0615 24.0027 82.4562 25.1653 83.2455 25.976C84.0348 26.7653 85.1442 27.16 86.5735 27.16C88.0242 27.16 89.1442 26.7653 89.9335 25.976C90.7228 25.1653 91.1175 24.0027 91.1175 22.488V8.66398H95.6295V22.456C95.6295 24.3547 95.2135 25.9653 94.3815 27.288C93.5708 28.5893 92.4722 29.5707 91.0855 30.232C89.7202 30.8933 88.1948 31.224 86.5095 31.224C84.8455 31.224 83.3308 30.8933 81.9655 30.232C80.6215 29.5707 79.5548 28.5893 78.7655 27.288C77.9762 25.9653 77.5815 24.3547 77.5815 22.456V8.66398H82.0615ZM107.67 31.224C106.113 31.224 104.705 30.9573 103.446 30.424C102.209 29.8907 101.227 29.1227 100.502 28.12C99.777 27.1173 99.403 25.9333 99.382 24.568H104.182C104.246 25.4853 104.566 26.2107 105.142 26.744C105.739 27.2773 106.55 27.544 107.574 27.544C108.619 27.544 109.441 27.2987 110.038 26.808C110.635 26.296 110.934 25.6347 110.934 24.824C110.934 24.1627 110.731 23.6187 110.326 23.192C109.921 22.7653 109.409 22.4347 108.79 22.2C108.193 21.944 107.361 21.6667 106.294 21.368C104.843 20.9413 103.659 20.5253 102.742 20.12C101.846 19.6933 101.067 19.064 100.406 18.232C99.766 17.3787 99.446 16.248 99.446 14.84C99.446 13.5173 99.777 12.3653 100.438 11.384C101.099 10.4027 102.027 9.65598 103.222 9.14398C104.417 8.61065 105.782 8.34398 107.318 8.34398C109.622 8.34398 111.489 8.90931 112.918 10.04C114.369 11.1493 115.169 12.7067 115.318 14.712H110.39C110.347 13.944 110.017 13.3147 109.398 12.824C108.801 12.312 108.001 12.056 106.998 12.056C106.123 12.056 105.419 12.28 104.886 12.728C104.374 13.176 104.118 13.8267 104.118 14.68C104.118 15.2773 104.31 15.7787 104.694 16.184C105.099 16.568 105.59 16.888 106.166 17.144C106.763 17.3787 107.595 17.656 108.662 17.976C110.113 18.4027 111.297 18.8293 112.214 19.256C113.131 19.6827 113.921 20.3227 114.582 21.176C115.243 22.0293 115.574 23.1493 115.574 24.536C115.574 25.7307 115.265 26.84 114.646 27.864C114.027 28.888 113.121 29.7093 111.926 30.328C110.731 30.9253 109.313 31.224 107.67 31.224ZM137.986 8.66398V31H133.506V21.496H123.938V31H119.458V8.66398H123.938V17.848H133.506V8.66398H137.986ZM146.876 12.28V17.88H154.396V21.432H146.876V27.352H155.356V31H142.396V8.63198H155.356V12.28H146.876ZM152.22 4.02398L144.86 7.38398V4.18398L152.22 0.375977V4.02398Z" fill="black"/>
</svg>
