<svg width="48" height="48" viewBox="0 0 48 48" fill="none" xmlns="http://www.w3.org/2000/svg">
<path d="M24 32.875C23.4825 32.875 23.0625 33.295 23.0625 33.8125C23.0625 34.33 23.4825 34.75 24 34.75C24.5175 34.75 24.9375 34.33 24.9375 33.8125C24.9375 33.295 24.5175 32.875 24 32.875Z" fill="#CBAC86"/>
<path d="M45.1875 17.875H41.8125C41.8125 14.7505 41.8125 6.89746 41.8125 3.8125C41.8125 2.2616 40.5509 1 39 1H2.8125C1.2616 1 0 2.2616 0 3.8125V26.3125C0 27.8634 1.2616 29.125 2.8125 29.125H6.1875V43.1875C6.1875 44.7384 7.4491 46 9 46H45.1875C46.7384 46 48 44.7384 48 43.1875V20.6875C48 19.1366 46.7384 17.875 45.1875 17.875ZM1.875 8.5H39.9375V12.25H1.875V8.5ZM2.8125 2.875H39C39.5171 2.875 39.9375 3.29541 39.9375 3.8125V6.625H1.875V3.8125C1.875 3.29541 2.29541 2.875 2.8125 2.875ZM2.8125 27.25C2.29541 27.25 1.875 26.8296 1.875 26.3125V14.125H39.9375V17.875H9C7.4491 17.875 6.1875 19.1366 6.1875 20.6875V27.25H2.8125ZM46.125 43.1875C46.125 43.7046 45.7046 44.125 45.1875 44.125H9C8.48291 44.125 8.0625 43.7046 8.0625 43.1875V20.6875C8.0625 20.1704 8.48291 19.75 9 19.75H45.1875C45.7046 19.75 46.125 20.1704 46.125 20.6875V43.1875Z" fill="#CBAC86"/>
<path d="M37.125 23.5C36.1029 23.5 35.1174 23.8354 34.3121 24.4393C33.5076 23.8354 32.5225 23.5 31.5 23.5C28.9153 23.5 26.8125 25.6028 26.8125 28.1875C26.8125 30.7722 28.9153 32.875 31.5 32.875C32.5225 32.875 33.5079 32.5396 34.3121 31.9357C35.1174 32.5396 36.1029 32.875 37.125 32.875C39.7097 32.875 41.8125 30.7722 41.8125 28.1875C41.8125 25.6028 39.7097 23.5 37.125 23.5ZM28.6875 28.1875C28.6875 26.6366 29.9491 25.375 31.5 25.375C32.3064 25.375 33.0747 25.7222 33.6083 26.3275C33.6083 26.3279 33.6086 26.3282 33.609 26.3286C34.0627 26.8417 34.3125 27.502 34.3125 28.1875C34.3125 28.873 34.0627 29.5333 33.6083 30.0475C33.0747 30.6528 32.3064 31 31.5 31C29.9491 31 28.6875 29.7384 28.6875 28.1875ZM37.125 31C36.5636 31 36.0205 30.8312 35.5616 30.5247C35.9685 29.8186 36.1875 29.014 36.1875 28.1875C36.1875 27.361 35.9685 26.5564 35.5616 25.8503C36.0205 25.5438 36.5636 25.375 37.125 25.375C38.6759 25.375 39.9375 26.6366 39.9375 28.1875C39.9375 29.7384 38.6759 31 37.125 31Z" fill="#CBAC86"/>
<path d="M16.5 38.5H12.75C12.2322 38.5 11.8125 38.9197 11.8125 39.4375C11.8125 39.9553 12.2322 40.375 12.75 40.375H16.5C17.0178 40.375 17.4375 39.9553 17.4375 39.4375C17.4375 38.9197 17.0178 38.5 16.5 38.5Z" fill="#CBAC86"/>
<path d="M24 38.5H20.25C19.7322 38.5 19.3125 38.9197 19.3125 39.4375C19.3125 39.9553 19.7322 40.375 20.25 40.375H24C24.5178 40.375 24.9375 39.9553 24.9375 39.4375C24.9375 38.9197 24.5178 38.5 24 38.5Z" fill="#CBAC86"/>
<path d="M31.5 38.5H27.75C27.2322 38.5 26.8125 38.9197 26.8125 39.4375C26.8125 39.9553 27.2322 40.375 27.75 40.375H31.5C32.0178 40.375 32.4375 39.9553 32.4375 39.4375C32.4375 38.9197 32.0178 38.5 31.5 38.5Z" fill="#CBAC86"/>
<path d="M39 38.5H35.25C34.7322 38.5 34.3125 38.9197 34.3125 39.4375C34.3125 39.9553 34.7322 40.375 35.25 40.375H39C39.5178 40.375 39.9375 39.9553 39.9375 39.4375C39.9375 38.9197 39.5178 38.5 39 38.5Z" fill="#CBAC86"/>
<path d="M12.75 34.75H20.25C20.7678 34.75 21.1875 34.3303 21.1875 33.8125C21.1875 33.2947 20.7678 32.875 20.25 32.875H12.75C12.2322 32.875 11.8125 33.2947 11.8125 33.8125C11.8125 34.3303 12.2322 34.75 12.75 34.75Z" fill="#CBAC86"/>
</svg>
