<svg width="32" height="32" viewBox="0 0 32 32" fill="none" xmlns="http://www.w3.org/2000/svg">
<rect width="32" height="32" rx="4" fill="white" fill-opacity="0.8"/>
<rect opacity="0.12" width="32" height="32" rx="4" fill="white" fill-opacity="0.8"/>
<path d="M16.2009 8.6665C12.1521 8.66712 10 11.243 10 14.0517C10 15.354 10.733 16.979 11.9066 17.4941C12.2413 17.6439 12.197 17.4611 12.4851 16.3672C12.5078 16.2762 12.4961 16.1973 12.4223 16.1124C10.7447 14.1855 12.0949 10.2242 15.9615 10.2242C21.5575 10.2242 20.5119 17.9134 16.9351 17.9134C16.0132 17.9134 15.3264 17.1947 15.5437 16.3055C15.8071 15.2464 16.3228 14.1079 16.3228 13.3446C16.3228 11.4208 13.4365 11.7062 13.4365 14.2552C13.4365 15.0429 13.7171 15.5746 13.7171 15.5746C13.7171 15.5746 12.7885 19.3 12.6161 19.9961C12.3244 21.1743 12.6555 23.0816 12.6844 23.246C12.7023 23.3364 12.8045 23.3652 12.8617 23.2906C12.9534 23.1714 14.0759 21.5813 14.3904 20.4318C14.5048 20.0132 14.9744 18.3143 14.9744 18.3143C15.284 18.8691 16.1763 19.3336 17.1271 19.3336C19.9556 19.3336 22 16.8647 22 13.8011C21.9902 10.8641 19.4589 8.6665 16.2009 8.6665V8.6665Z" fill="black"/>
</svg>
