<svg width="16" height="16" viewBox="0 0 16 16" fill="none" xmlns="http://www.w3.org/2000/svg">
<g clip-path="url(#clip0_2203_30)">
<path fill-rule="evenodd" clip-rule="evenodd" d="M7.08341 1.99996C4.27597 1.99996 2.00008 4.27585 2.00008 7.08329C2.00008 9.89074 4.27597 12.1666 7.08341 12.1666C8.48601 12.1666 9.75486 11.5994 10.6753 10.6803C11.5974 9.7595 12.1667 8.48851 12.1667 7.08329C12.1667 4.27585 9.89086 1.99996 7.08341 1.99996ZM0.666748 7.08329C0.666748 3.53947 3.53959 0.666626 7.08341 0.666626C10.6272 0.666626 13.5001 3.53947 13.5001 7.08329C13.5001 8.6161 12.962 10.0242 12.0654 11.1275L15.6667 14.6666C15.9273 14.9267 15.9269 15.406 15.6667 15.6666C15.4066 15.9272 14.9273 15.9267 14.6667 15.6666L11.1221 12.0698C10.0196 12.9637 8.61364 13.5 7.08341 13.5C3.53959 13.5 0.666748 10.6271 0.666748 7.08329Z" fill="black"/>
</g>
<defs>
<clipPath id="clip0_2203_30">
<rect width="16" height="16" fill="white"/>
</clipPath>
</defs>
</svg>
