<svg width="48" height="48" viewBox="0 0 48 48" fill="none" xmlns="http://www.w3.org/2000/svg">
<path d="M28.3164 22.5C28.8339 22.5 29.2539 22.08 29.2539 21.5625C29.2539 21.045 28.8339 20.625 28.3164 20.625C27.7979 20.625 27.3789 21.045 27.3789 21.5625C27.3789 22.08 27.7979 22.5 28.3164 22.5Z" fill="#CBAC86"/>
<path d="M18.9414 22.5C19.4589 22.5 19.8789 22.08 19.8789 21.5625C19.8789 21.045 19.4589 20.625 18.9414 20.625C18.4229 20.625 18.0039 21.045 18.0039 21.5625C18.0039 22.08 18.4229 22.5 18.9414 22.5Z" fill="#CBAC86"/>
<path d="M3 45.0048V47.0625C3 47.5803 3.41968 48 3.9375 48H43.3125C43.8303 48 44.25 47.5803 44.25 47.0625V45.0029C44.25 41.2745 42.1556 37.8289 38.2797 36.4142C39.6804 35.1907 40.5319 33.3984 40.5319 31.4604C40.5319 30.943 40.1122 30.5229 39.5944 30.5229C37.3392 30.5229 35.4386 28.9281 34.9808 26.8125H37.6904C39.2395 26.8125 40.5 25.5509 40.5 24V19.6875C40.5 18.4647 39.7159 17.4221 38.625 17.0358V15C38.625 6.72913 31.8973 0 23.6279 0C15.3395 0 8.625 6.70789 8.625 15V17.0372C7.53406 17.425 6.75 18.4673 6.75 19.6875V24C6.75 25.5509 8.01306 26.8125 9.56543 26.8125H12.2692C11.8121 28.9281 9.91333 30.5229 7.6604 30.5229C7.14258 30.5229 6.7229 30.943 6.7229 31.4604C6.7229 33.401 7.57654 35.1951 8.98096 36.4193C5.12 37.8351 3 41.3156 3 45.0048ZM38.5778 32.3196C38.2859 33.8917 37.2041 35.2262 35.6924 35.8257L30.0128 35.0881L29.406 32.7166C31.1766 31.6578 32.5876 30.1619 33.5332 28.4059C34.4154 30.4501 36.3102 31.9662 38.5778 32.3196ZM31.1418 16.875C28.552 16.875 26.4448 14.7415 26.4448 12.119C26.4448 11.6012 26.0251 11.1815 25.5073 11.1815C24.9899 11.1815 24.5698 11.6012 24.5698 12.119C24.5698 14.7415 22.4626 16.875 19.8721 16.875H14.2529C14.2529 11.7056 18.4585 7.5 23.6279 7.5C28.8073 7.5 33.0029 11.6917 33.0029 16.875H31.1418ZM14.25 18.75H19.8721C22.2612 18.75 24.3567 17.4576 25.5073 15.5292C26.658 17.4576 28.7531 18.75 31.1418 18.75H33V23.0625C33 26.6085 31.036 29.8118 27.8749 31.422C26.5521 32.0958 25.1232 32.4375 23.6279 32.4375C22.1367 32.4375 20.7122 32.0984 19.3931 31.4297C18.5079 30.9811 17.7019 30.3966 16.9969 29.6913C15.2256 27.921 14.25 25.5667 14.25 23.0625V18.75ZM19.5861 33.5647C20.8696 34.0605 22.2246 34.3125 23.6279 34.3125C25.0367 34.3125 26.3969 34.0583 27.6859 33.5574L28.281 35.8846C27.9686 38.2057 25.9995 39.9375 23.6371 39.9375C21.275 39.9375 19.3059 38.2064 18.9928 35.8861L19.5861 33.5647ZM38.625 24C38.625 24.5171 38.2057 24.9375 37.6904 24.9375H34.875V18.75H37.6904C38.2057 18.75 38.625 19.1704 38.625 19.6875V24ZM23.6279 1.875C30.8635 1.875 36.75 7.76294 36.75 15V16.875H34.8779C34.8779 10.6593 29.8473 5.625 23.6279 5.625C17.4247 5.625 12.3779 10.6718 12.3779 16.875H10.5V15C10.5 7.74829 16.3722 1.875 23.6279 1.875ZM8.625 24V19.6875C8.625 19.1715 9.04614 18.7511 9.56543 18.75H12.375V24.9375H9.56543C9.04688 24.9375 8.625 24.5171 8.625 24ZM13.7183 28.4033C14.2321 29.3525 14.8861 30.2329 15.6713 31.0173C16.3319 31.6783 17.0684 32.2496 17.8652 32.7253L17.2614 35.0885L11.566 35.8275C10.0525 35.2277 8.96924 33.8925 8.677 32.3196C10.9438 31.9658 12.8375 30.4482 13.7183 28.4033ZM11.4668 37.7307L11.5701 37.7175H11.5708C11.5715 37.7172 11.5723 37.7172 11.573 37.7172L17.3031 36.9738C18.0623 39.7947 20.6206 41.8125 23.6371 41.8125C26.6536 41.8125 29.2115 39.7947 29.9703 36.9734C30.256 37.0107 28.4652 36.7782 35.8063 37.7311C39.9163 38.265 42.375 41.3452 42.375 45.0029V46.125H4.875V45.0048C4.875 41.4155 7.33228 38.2676 11.4668 37.7307Z" fill="#CBAC86"/>
<path d="M21.122 28.9439C21.909 29.3148 22.7523 29.5031 23.628 29.5031C24.4834 29.5031 25.31 29.3225 26.0856 28.9666C26.5562 28.7509 26.7624 28.1942 26.5463 27.7237C26.3306 27.2531 25.7739 27.0465 25.3034 27.2626C24.7749 27.505 24.2113 27.6281 23.6283 27.6281C23.031 27.6281 22.4564 27.5003 21.9214 27.248C21.453 27.0271 20.8946 27.2278 20.6737 27.6962C20.4529 28.1646 20.6536 28.7234 21.122 28.9439Z" fill="#CBAC86"/>
<path d="M32.0664 43.6875H35.8164C36.3342 43.6875 36.7539 43.2678 36.7539 42.75C36.7539 42.2322 36.3342 41.8125 35.8164 41.8125H32.0664C31.5486 41.8125 31.1289 42.2322 31.1289 42.75C31.1289 43.2678 31.5486 43.6875 32.0664 43.6875Z" fill="#CBAC86"/>
<path d="M39.5625 41.8125C40.08 41.8125 40.5 42.2325 40.5 42.75C40.5 43.2675 40.08 43.6875 39.5625 43.6875C39.045 43.6875 38.625 43.2675 38.625 42.75C38.625 42.2325 39.045 41.8125 39.5625 41.8125Z" fill="#CBAC86"/>
</svg>
