<svg width="18" height="19" viewBox="0 0 18 19" fill="none" xmlns="http://www.w3.org/2000/svg">
<path fill-rule="evenodd" clip-rule="evenodd" d="M8.99995 2.50004C7.38912 2.50004 6.08328 3.80588 6.08328 5.41671C6.08328 7.02754 7.38912 8.33337 8.99995 8.33337C10.6108 8.33337 11.9166 7.02754 11.9166 5.41671C11.9166 3.80588 10.6108 2.50004 8.99995 2.50004ZM4.41662 5.41671C4.41662 2.8854 6.46865 0.833374 8.99995 0.833374C11.5313 0.833374 13.5833 2.8854 13.5833 5.41671C13.5833 7.94801 11.5313 10 8.99995 10C6.46865 10 4.41662 7.94801 4.41662 5.41671Z" fill="black"/>
<path fill-rule="evenodd" clip-rule="evenodd" d="M4.08667 12.5C3.5089 12.5 3.05731 12.7814 2.874 13.1856C2.62028 13.745 2.39053 14.411 2.33632 15.0427C2.31208 15.3251 2.42982 15.5332 2.59205 15.6339C3.44968 16.1667 5.43694 17.0834 8.99995 17.0834C12.563 17.0834 14.5502 16.1667 15.4079 15.6339C15.5701 15.5332 15.6878 15.3251 15.6636 15.0427C15.6094 14.411 15.3796 13.745 15.1259 13.1856C14.9426 12.7814 14.491 12.5 13.9132 12.5H4.08667ZM1.35614 12.4972C1.86276 11.3801 2.99404 10.8334 4.08667 10.8334H13.9132C15.0059 10.8334 16.1371 11.3801 16.6438 12.4972C16.9347 13.1388 17.247 14.0013 17.3241 14.9002C17.3944 15.7187 17.0542 16.5733 16.2873 17.0497C15.1594 17.7504 12.8663 18.75 8.99995 18.75C5.13362 18.75 2.84054 17.7504 1.71259 17.0497C0.945703 16.5733 0.605503 15.7187 0.675756 14.9002C0.752905 14.0013 1.06515 13.1388 1.35614 12.4972Z" fill="black"/>
</svg>
